<!DOCTYPE svg PUBLIC "-//W3C//DTD SVG 20010904//EN" "http://www.w3.org/TR/2001/REC-SVG-20010904/DTD/svg10.dtd">
<svg version="1.0" xmlns="http://www.w3.org/2000/svg" width="256px" height="256px" viewBox="0 0 2560 2560" preserveAspectRatio="xMidYMid meet"><g fill="#010101" stroke="none">
 <path d="M1190 2053 c-46 -8 -153 -44 -204 -70 -195 -98 -336 -264 -408 -479 -20 -60 -23 -89 -23 -224 0 -135 3 -164 23 -224 73 -217 215 -384 407 -476 138 -67 224 -84 384 -77 133 5 203 22 306 74 208 106 375 316 421 531 19 90 18 256 -2 345 -64 286 -305 527 -591 591 -67 15 -246 20 -313 9z m295 -118 c229 -58 416 -240 482 -469 30 -103 31 -250 3 -360 -60 -234 -253 -427 -482 -481 -82 -19 -238 -19 -313 0 -33 8 -98 34 -145 57 -109 53 -228 168 -282 273 -106 205 -106 447 0 650 82 155 252 289 419 329 79 19 244 20 318 1z"/>
 <path d="M1188 1751 c-75 -24 -144 -69 -206 -135 -95 -100 -126 -195 -120 -361 4 -103 7 -118 40 -187 60 -126 170 -218 303 -253 86 -22 239 -20 338 6 45 11 88 25 95 31 9 8 12 44 10 137 l-3 126 -55 0 -54 0 -14 -78 c-13 -75 -15 -78 -49 -92 -20 -8 -66 -15 -103 -15 -128 0 -231 76 -280 207 -19 49 -21 74 -18 163 3 87 8 115 29 160 57 123 142 180 264 179 39 0 86 -6 105 -13 34 -12 35 -15 48 -87 20 -107 15 -100 74 -97 l53 3 0 140 0 140 -85 22 c-112 29 -288 31 -372 4z"/>
 </g>

</svg>