<!DOCTYPE svg PUBLIC "-//W3C//DTD SVG 20010904//EN" "http://www.w3.org/TR/2001/REC-SVG-20010904/DTD/svg10.dtd">
<svg version="1.0" xmlns="http://www.w3.org/2000/svg" width="256px" height="256px" viewBox="0 0 2560 2560" preserveAspectRatio="xMidYMid meet"><g fill="#000000" stroke="none">
 <path d="M1155 1954 c-167 -36 -294 -130 -357 -264 -57 -120 -63 -159 -63 -405 1 -232 12 -328 57 -465 59 -184 135 -258 318 -310 60 -17 122 -23 310 -30 261 -11 386 -24 438 -46 19 -8 36 -14 39 -14 2 0 2 42 1 93 l-3 92 -70 18 c-52 13 -136 20 -325 27 -272 9 -324 17 -403 63 -52 31 -87 82 -111 166 -24 81 -21 85 32 44 93 -72 199 -103 347 -103 174 0 274 39 385 150 106 106 160 248 160 425 0 285 -156 502 -402 560 -80 19 -261 18 -353 -1z m310 -175 c97 -43 159 -112 197 -217 30 -81 30 -253 1 -334 -30 -80 -77 -144 -136 -183 -69 -45 -128 -58 -240 -53 -76 3 -103 9 -149 31 -147 72 -229 255 -199 445 25 162 111 275 244 318 53 17 239 13 282 -7z"/>
 </g>

</svg>