<!DOCTYPE svg PUBLIC "-//W3C//DTD SVG 20010904//EN" "http://www.w3.org/TR/2001/REC-SVG-20010904/DTD/svg10.dtd">
<svg version="1.0" xmlns="http://www.w3.org/2000/svg" width="256px" height="256px" viewBox="0 0 2560 2560" preserveAspectRatio="xMidYMid meet"><g fill="#010101" stroke="none">
 <path d="M1614 1935 c-85 -15 -121 -33 -161 -79 -41 -46 -57 -97 -56 -181 1 -59 12 -105 71 -285 39 -118 70 -216 68 -217 -2 -2 -166 76 -366 172 -200 96 -364 174 -366 172 -1 -1 38 -155 88 -342 50 -187 93 -359 95 -381 4 -35 0 -46 -27 -77 -37 -42 -85 -61 -134 -51 l-36 6 0 -97 0 -98 93 6 c202 12 286 83 294 247 3 66 -3 100 -49 276 l-54 201 161 -78 c88 -42 257 -124 375 -182 118 -59 216 -104 218 -102 2 2 -53 179 -122 393 -69 215 -126 399 -126 409 0 26 33 72 66 94 19 12 47 19 82 19 l52 0 0 95 0 95 -47 -1 c-27 0 -80 -7 -119 -14z"/>
 </g>

</svg>