<!DOCTYPE svg PUBLIC "-//W3C//DTD SVG 20010904//EN" "http://www.w3.org/TR/2001/REC-SVG-20010904/DTD/svg10.dtd">
<svg version="1.0" xmlns="http://www.w3.org/2000/svg" width="256px" height="256px" viewBox="0 0 2560 2560" preserveAspectRatio="xMidYMid meet"><g fill="#000000" stroke="none">
 <path d="M503 1808 c46 -90 216 -418 377 -731 l292 -567 117 0 118 0 343 667 c189 368 358 696 377 731 l35 62 -119 0 -118 0 -133 -260 -133 -260 -135 0 -134 0 0 260 0 260 -100 0 -100 0 0 -260 0 -261 -136 3 -136 3 -132 255 -131 255 -119 3 -118 3 85 -163z m1057 -543 c0 -9 -261 -515 -269 -519 -6 -4 -271 502 -271 518 0 3 122 6 270 6 149 0 270 -2 270 -5z"/>
 </g>

</svg>