<!DOCTYPE svg PUBLIC "-//W3C//DTD SVG 20010904//EN" "http://www.w3.org/TR/2001/REC-SVG-20010904/DTD/svg10.dtd">
<svg version="1.0" xmlns="http://www.w3.org/2000/svg" width="256px" height="256px" viewBox="0 0 2560 2560" preserveAspectRatio="xMidYMid meet"><g fill="#000000" stroke="none">
 <path d="M774 1732 c-50 -24 -107 -89 -122 -141 -18 -59 -15 -169 7 -216 43 -95 144 -151 407 -223 l136 -37 -7 -80 c-11 -140 -52 -186 -164 -186 -34 0 -77 5 -96 11 l-35 12 0 84 0 84 -93 0 c-59 0 -97 -4 -105 -12 -20 -20 -14 -96 10 -139 26 -47 103 -101 178 -126 42 -14 86 -18 185 -18 142 0 169 8 231 67 l32 30 46 -36 c61 -46 130 -66 231 -66 71 0 90 4 143 31 122 60 182 180 182 362 l0 87 -280 0 -280 0 0 129 0 129 43 37 c23 21 67 49 97 64 48 23 68 26 155 26 109 0 146 -13 228 -77 l37 -30 0 69 0 68 -43 26 c-110 69 -174 89 -287 89 -129 0 -242 -39 -323 -110 -19 -16 -37 -30 -41 -30 -3 0 -28 16 -55 35 -27 19 -80 49 -117 67 -59 27 -83 32 -164 35 -78 3 -102 0 -136 -15z m314 -137 c30 -14 67 -34 83 -46 l29 -20 0 -164 0 -164 -52 15 c-150 44 -247 96 -285 153 -28 41 -32 135 -8 182 37 71 136 89 233 44z m652 -482 c0 -10 -5 -49 -10 -87 -18 -119 -71 -176 -165 -176 -99 0 -163 78 -173 211 l-5 69 177 0 c161 0 176 -1 176 -17z"/>
 </g>

</svg>