<!DOCTYPE svg PUBLIC "-//W3C//DTD SVG 20010904//EN" "http://www.w3.org/TR/2001/REC-SVG-20010904/DTD/svg10.dtd">
<svg version="1.0" xmlns="http://www.w3.org/2000/svg" width="256px" height="256px" viewBox="0 0 2560 2560" preserveAspectRatio="xMidYMid meet"><g fill="#010101" stroke="none">
 <path d="M1735 2178 c-2 -7 -6 -49 -8 -93 -6 -90 -35 -179 -75 -227 -34 -40 -115 -78 -168 -78 l-42 0 -4 -222 c-5 -241 -9 -262 -63 -326 -28 -34 -97 -74 -150 -86 -16 -4 -71 -7 -122 -7 l-93 1 0 -61 c0 -56 2 -61 20 -56 34 9 157 -11 198 -32 99 -51 142 -119 142 -226 0 -110 -47 -185 -145 -231 -72 -34 -182 -34 -251 1 -81 40 -95 61 -113 172 l-16 98 -63 3 -63 3 3 -161 3 -162 55 -22 c124 -50 186 -61 355 -61 143 1 166 3 217 23 86 35 148 82 193 146 40 57 40 59 40 149 0 71 -4 101 -20 132 -30 62 -107 131 -196 174 l-79 38 47 7 c56 7 154 51 199 89 18 15 46 49 64 76 25 41 33 65 40 138 5 48 10 114 10 146 0 67 19 121 49 136 11 6 47 14 81 18 l60 6 0 253 0 254 -50 0 c-32 0 -52 -5 -55 -12z"/>
 </g>

</svg>