<!DOCTYPE svg PUBLIC "-//W3C//DTD SVG 20010904//EN" "http://www.w3.org/TR/2001/REC-SVG-20010904/DTD/svg10.dtd">
<svg version="1.0" xmlns="http://www.w3.org/2000/svg" width="256px" height="256px" viewBox="0 0 2560 2560" preserveAspectRatio="xMidYMid meet"><g fill="#010101" stroke="none">
 <path d="M1004 1985 c-38 -7 -96 -20 -127 -29 l-57 -17 0 -159 0 -160 58 0 59 0 22 109 c15 71 30 116 41 126 27 25 83 35 192 35 203 1 346 -86 433 -264 36 -73 65 -182 65 -248 l0 -38 -275 0 -275 0 0 -50 0 -50 275 0 275 0 0 -42 c0 -63 -26 -161 -61 -231 -85 -172 -223 -257 -420 -257 -103 0 -212 30 -234 64 -7 12 -19 60 -26 109 l-12 87 -59 0 -59 0 3 -157 3 -158 100 -24 c85 -21 126 -24 280 -25 173 -1 183 0 260 27 204 72 337 204 409 406 30 83 31 92 31 251 0 146 -3 173 -23 235 -81 242 -241 395 -477 455 -92 24 -286 26 -401 5z"/>
 <path d="M1039 381 c-25 -25 -29 -37 -29 -81 0 -44 4 -56 29 -81 42 -42 110 -42 152 0 25 25 29 37 29 81 0 44 -4 56 -29 81 -24 24 -38 29 -76 29 -38 0 -52 -5 -76 -29z"/>
 <path d="M1449 381 c-25 -25 -29 -37 -29 -81 0 -44 4 -56 29 -81 24 -24 38 -29 76 -29 38 0 52 5 76 29 25 25 29 37 29 81 0 44 -4 56 -29 81 -24 24 -38 29 -76 29 -38 0 -52 -5 -76 -29z"/>
 </g>

</svg>