<!DOCTYPE svg PUBLIC "-//W3C//DTD SVG 20010904//EN" "http://www.w3.org/TR/2001/REC-SVG-20010904/DTD/svg10.dtd">
<svg version="1.0" xmlns="http://www.w3.org/2000/svg" width="256px" height="256px" viewBox="0 0 2560 2560" preserveAspectRatio="xMidYMid meet"><g fill="#000000" stroke="none">
 <path d="M1650 2373 c0 -5 43 -80 95 -168 l95 -160 -185 -3 -185 -2 0 -50 0 -50 60 0 c106 0 100 27 100 -447 0 -246 -4 -403 -9 -398 -5 6 -138 168 -295 360 -281 344 -286 351 -286 396 0 67 15 81 96 88 l69 6 3 48 3 47 -265 0 -266 0 0 -50 0 -50 55 0 c42 0 60 -5 75 -20 19 -19 20 -33 20 -553 0 -597 2 -577 -68 -577 -72 0 -82 -8 -82 -56 l0 -44 265 0 265 0 0 44 c0 41 -2 44 -31 50 -17 3 -49 6 -70 6 -70 0 -70 -4 -67 425 l3 378 290 -352 c177 -215 291 -362 293 -377 5 -40 -23 -74 -62 -74 -18 0 -48 -3 -65 -6 -29 -6 -31 -9 -31 -50 l0 -44 255 0 255 0 0 44 c0 48 -11 56 -77 56 -65 0 -63 -14 -63 577 0 520 1 534 20 553 15 15 33 20 70 20 l50 0 0 55 c0 51 -6 65 -97 219 l-98 165 -67 1 c-38 0 -68 -3 -68 -7z"/>
 <path d="M1211 534 c-111 -40 -171 -111 -171 -203 0 -73 28 -101 103 -101 45 0 59 4 81 26 42 43 35 74 -24 109 -48 28 -49 30 -32 48 66 75 258 75 324 0 17 -18 16 -20 -32 -49 -59 -35 -66 -66 -24 -108 22 -22 36 -26 81 -26 74 0 103 28 103 100 0 61 -17 96 -65 138 -66 58 -111 75 -210 79 -64 2 -103 -1 -134 -13z"/>
 </g>

</svg>