<!DOCTYPE svg PUBLIC "-//W3C//DTD SVG 20010904//EN" "http://www.w3.org/TR/2001/REC-SVG-20010904/DTD/svg10.dtd">
<svg version="1.0" xmlns="http://www.w3.org/2000/svg" width="256px" height="256px" viewBox="0 0 2560 2560" preserveAspectRatio="xMidYMid meet"><g fill="#010101" stroke="none">
 <path d="M1575 2273 c-41 -15 -48 -15 -348 3 -133 9 -199 -9 -264 -69 -64 -58 -87 -113 -86 -208 0 -98 24 -169 69 -208 19 -17 44 -33 57 -36 12 -2 112 -6 222 -7 189 -3 202 -5 241 -27 59 -34 88 -88 82 -157 -5 -62 -34 -100 -103 -137 -34 -18 -61 -22 -177 -25 l-138 -4 0 -79 0 -79 78 0 c207 0 312 -50 314 -149 1 -53 -25 -86 -90 -118 -53 -26 -66 -28 -172 -27 -83 0 -140 6 -203 22 -49 12 -93 22 -98 22 -5 0 -9 -38 -9 -84 l0 -84 48 -11 c26 -6 74 -15 106 -21 33 -5 61 -11 62 -13 2 -2 -28 -79 -66 -172 -95 -231 -93 -207 -20 -203 l62 3 67 160 c37 88 71 169 75 180 6 16 24 -13 86 -141 59 -121 87 -167 110 -184 34 -24 103 -37 144 -26 23 6 26 11 26 51 l0 44 -47 3 -48 3 -61 125 c-85 172 -83 166 -33 174 109 17 216 103 238 191 35 138 -11 247 -123 296 -31 13 -56 27 -56 30 0 4 12 10 28 13 51 13 130 74 159 123 25 43 28 57 28 133 -1 72 -5 93 -27 136 -33 63 -93 118 -167 153 -54 25 -64 26 -263 29 -237 4 -237 4 -246 92 -13 134 78 175 297 134 95 -18 201 -15 266 7 l40 14 3 73 c3 80 4 80 -63 55z"/>
 </g>

</svg>