<!DOCTYPE svg PUBLIC "-//W3C//DTD SVG 20010904//EN" "http://www.w3.org/TR/2001/REC-SVG-20010904/DTD/svg10.dtd">
<svg version="1.0" xmlns="http://www.w3.org/2000/svg" width="256px" height="256px" viewBox="0 0 2560 2560" preserveAspectRatio="xMidYMid meet"><g fill="#000000" stroke="none">
 <path d="M800 1984 c0 -3 38 -124 85 -268 47 -144 85 -267 85 -273 0 -6 -103 -87 -230 -178 -126 -92 -230 -171 -230 -176 0 -5 131 -10 292 -11 l292 -3 89 -274 c49 -150 92 -269 97 -265 4 5 47 129 94 277 l87 267 294 0 c162 0 295 3 294 8 0 4 -106 83 -235 177 -129 93 -234 172 -234 175 0 3 40 128 89 278 49 149 86 272 82 272 -4 0 -112 -76 -241 -169 l-234 -169 -140 102 c-356 258 -336 244 -336 230z"/>
 </g>

</svg>