<!DOCTYPE svg PUBLIC "-//W3C//DTD SVG 20010904//EN" "http://www.w3.org/TR/2001/REC-SVG-20010904/DTD/svg10.dtd">
<svg version="1.0" xmlns="http://www.w3.org/2000/svg" width="256px" height="256px" viewBox="0 0 2560 2560" preserveAspectRatio="xMidYMid meet"><g fill="#010101" stroke="none">
 <path d="M1270 1936 c-124 -36 -242 -138 -275 -236 -25 -75 -18 -208 14 -275 41 -83 150 -183 263 -241 l97 -49 3 -110 3 -110 60 0 60 0 0 155 0 155 -40 18 c-110 51 -188 128 -221 219 -20 57 -19 174 2 227 30 75 118 131 206 131 35 0 35 0 76 -97 l40 -98 56 0 c66 1 104 24 125 79 28 74 -25 163 -127 213 -51 24 -69 28 -177 30 -76 1 -136 -3 -165 -11z"/>
 <path d="M1371 783 c-46 -23 -71 -67 -71 -127 0 -43 4 -53 39 -87 36 -36 43 -39 96 -39 55 0 60 2 97 40 33 36 38 47 38 88 0 111 -100 174 -199 125z"/>
 </g>

</svg>