<!DOCTYPE svg PUBLIC "-//W3C//DTD SVG 20010904//EN" "http://www.w3.org/TR/2001/REC-SVG-20010904/DTD/svg10.dtd">
<svg version="1.0" xmlns="http://www.w3.org/2000/svg" width="256px" height="256px" viewBox="0 0 2560 2560" preserveAspectRatio="xMidYMid meet"><g fill="#000000" stroke="none">
 <path d="M1560 1310 l0 -710 -75 0 -75 0 0 352 0 351 -99 -6 c-226 -14 -350 -101 -386 -273 -18 -86 -18 -141 -1 -225 26 -122 76 -187 177 -233 86 -40 142 -46 425 -46 l264 0 0 39 0 39 -65 7 -65 7 0 704 0 704 -50 0 -50 0 0 -710z"/>
 </g>

</svg>