<!DOCTYPE svg PUBLIC "-//W3C//DTD SVG 20010904//EN" "http://www.w3.org/TR/2001/REC-SVG-20010904/DTD/svg10.dtd">
<svg version="1.0" xmlns="http://www.w3.org/2000/svg" width="256px" height="256px" viewBox="0 0 2560 2560" preserveAspectRatio="xMidYMid meet"><g fill="#000000" stroke="none">
 <path d="M925 1949 c-82 -20 -243 -93 -251 -114 -3 -6 -3 -57 -2 -112 l3 -101 60 45 c127 96 239 134 393 134 165 -1 278 -45 368 -144 95 -106 134 -234 134 -442 0 -208 -39 -336 -134 -442 -90 -99 -203 -143 -368 -144 -154 0 -266 38 -393 134 l-60 45 -3 -101 c-1 -55 -1 -106 2 -113 7 -17 136 -80 220 -106 63 -20 91 -23 246 -23 163 1 181 3 255 28 143 48 239 117 321 233 104 145 139 286 131 528 -6 184 -18 239 -80 366 -80 165 -229 281 -421 330 -108 27 -307 27 -421 -1z"/>
 <path d="M990 1245 l0 -125 105 0 105 0 0 125 0 125 -105 0 -105 0 0 -125z"/>
 </g>

</svg>