<!DOCTYPE svg PUBLIC "-//W3C//DTD SVG 20010904//EN" "http://www.w3.org/TR/2001/REC-SVG-20010904/DTD/svg10.dtd">
<svg version="1.0" xmlns="http://www.w3.org/2000/svg" width="256px" height="256px" viewBox="0 0 2560 2560" preserveAspectRatio="xMidYMid meet"><g fill="#000000" stroke="none">
 <path d="M1030 1971 c0 -15 10 -20 48 -25 117 -17 129 -35 138 -213 l7 -130 -94 -6 c-260 -18 -419 -118 -463 -290 -10 -40 -17 -130 -20 -257 -3 -107 -10 -211 -16 -231 -13 -46 -51 -81 -96 -88 -21 -3 -39 -12 -42 -19 -3 -9 20 -12 92 -12 203 0 238 50 251 355 3 83 11 177 16 209 28 161 121 240 298 253 l73 6 -4 -369 c-4 -403 -3 -400 -63 -428 -16 -8 -51 -17 -77 -21 -38 -6 -48 -11 -48 -26 0 -18 12 -19 280 -19 270 0 280 1 280 19 0 16 -10 21 -56 27 -87 10 -114 40 -124 134 -5 41 -9 211 -10 378 l0 302 45 0 c114 0 228 -46 275 -112 48 -65 60 -125 75 -348 17 -262 34 -311 115 -344 51 -20 234 -23 228 -4 -3 7 -21 16 -42 19 -45 7 -83 41 -96 88 -6 20 -13 126 -16 236 -7 265 -20 313 -107 400 -47 46 -79 68 -129 88 -77 31 -214 57 -296 57 l-55 0 7 130 c4 72 11 142 16 156 11 28 53 49 123 59 37 6 47 11 47 26 0 18 -12 19 -280 19 -268 0 -280 -1 -280 -19z"/>
 </g>

</svg>