<!DOCTYPE svg PUBLIC "-//W3C//DTD SVG 20010904//EN" "http://www.w3.org/TR/2001/REC-SVG-20010904/DTD/svg10.dtd">
<svg version="1.0" xmlns="http://www.w3.org/2000/svg" width="256px" height="256px" viewBox="0 0 2560 2560" preserveAspectRatio="xMidYMid meet"><g fill="#010101" stroke="none">
 <path d="M1114 1990 c-252 -66 -444 -265 -500 -518 -23 -104 -15 -300 16 -392 79 -235 250 -397 481 -454 36 -9 91 -16 122 -16 l56 0 10 37 c6 20 8 39 6 43 -2 4 -27 10 -55 13 -161 19 -328 189 -383 387 -24 87 -28 124 -28 233 1 325 193 575 444 578 30 1 69 -2 87 -6 l32 -7 -45 -47 c-65 -67 -120 -157 -152 -252 -25 -73 -29 -103 -33 -226 -6 -205 22 -329 105 -460 42 -68 105 -128 168 -161 44 -24 61 -27 150 -27 95 0 103 2 163 34 103 56 180 161 227 311 25 81 32 322 11 419 -25 117 -94 247 -176 333 -77 80 -76 88 7 88 65 0 95 -11 159 -60 l51 -39 22 29 c11 16 21 36 21 44 0 24 -89 94 -149 117 -49 18 -71 20 -171 16 -66 -2 -132 -11 -155 -19 -37 -14 -47 -14 -110 3 -97 25 -284 25 -381 -1z m520 -261 c19 -22 50 -73 69 -112 53 -108 68 -186 68 -340 -1 -282 -69 -457 -178 -457 -109 0 -182 178 -184 451 0 148 14 216 71 334 39 82 95 165 110 165 5 0 24 -18 44 -41z"/>
 </g>

</svg>