<!DOCTYPE svg PUBLIC "-//W3C//DTD SVG 20010904//EN" "http://www.w3.org/TR/2001/REC-SVG-20010904/DTD/svg10.dtd">
<svg version="1.0" xmlns="http://www.w3.org/2000/svg" width="256px" height="256px" viewBox="0 0 2560 2560" preserveAspectRatio="xMidYMid meet"><g fill="#000000" stroke="none">
 <path d="M878 2057 c-71 -39 -128 -76 -128 -82 0 -5 39 -76 86 -158 47 -82 82 -153 77 -157 -4 -5 -73 -46 -152 -92 -79 -46 -143 -88 -143 -93 0 -16 136 -255 145 -255 4 0 77 40 161 89 l153 89 73 -125 c39 -69 68 -129 63 -133 -4 -5 -71 -45 -148 -90 -77 -45 -143 -84 -147 -88 -7 -7 116 -230 139 -253 8 -8 54 14 166 79 l155 90 73 -129 c41 -71 78 -129 84 -129 10 0 233 126 249 141 5 4 -21 61 -62 132 -40 68 -72 128 -72 133 0 5 66 47 146 93 80 46 148 89 150 96 6 13 -124 245 -141 251 -6 3 -78 -34 -159 -81 -81 -47 -150 -85 -154 -85 -8 1 -142 233 -142 246 0 5 66 47 146 93 80 46 148 89 150 96 6 13 -124 245 -141 251 -6 3 -78 -34 -159 -81 -81 -47 -150 -85 -154 -85 -4 0 -47 70 -95 155 -49 85 -89 155 -90 155 -1 0 -59 -33 -129 -73z"/>
 </g>

</svg>