<!DOCTYPE svg PUBLIC "-//W3C//DTD SVG 20010904//EN" "http://www.w3.org/TR/2001/REC-SVG-20010904/DTD/svg10.dtd">
<svg version="1.0" xmlns="http://www.w3.org/2000/svg" width="256px" height="256px" viewBox="0 0 2560 2560" preserveAspectRatio="xMidYMid meet"><g fill="#000000" stroke="none">
 <path d="M1200 2070 l0 -200 -28 0 c-44 0 -156 -36 -220 -70 -172 -91 -297 -280 -332 -502 -16 -101 -8 -351 15 -433 32 -116 93 -224 175 -306 133 -134 241 -178 451 -186 239 -9 372 38 514 181 92 92 140 175 177 301 20 71 23 102 23 265 0 213 -11 273 -77 407 -46 95 -131 193 -215 249 -64 42 -201 94 -250 94 l-33 0 0 200 0 200 -100 0 -100 0 0 -200z m296 -410 c118 -58 217 -196 250 -348 18 -87 18 -297 0 -384 -33 -154 -133 -292 -252 -349 -108 -51 -258 -55 -379 -9 -75 29 -179 129 -218 210 -92 189 -92 491 -1 678 39 80 124 166 201 203 116 55 285 55 399 -1z"/>
 </g>

</svg>