<!DOCTYPE svg PUBLIC "-//W3C//DTD SVG 20010904//EN" "http://www.w3.org/TR/2001/REC-SVG-20010904/DTD/svg10.dtd">
<svg version="1.0" xmlns="http://www.w3.org/2000/svg" width="256px" height="256px" viewBox="0 0 2560 2560" preserveAspectRatio="xMidYMid meet"><g fill="#000000" stroke="none">
 <path d="M772 2048 l3 -63 83 -5 c68 -4 86 -9 98 -24 12 -17 14 -100 14 -488 l0 -468 -78 0 c-47 0 -85 5 -95 13 -11 7 -24 44 -35 95 l-17 82 -67 0 -68 0 0 -145 0 -145 180 0 180 0 0 -48 c0 -74 -14 -86 -104 -90 l-76 -4 0 -64 0 -64 335 0 335 0 0 64 0 64 -96 4 c-112 4 -124 13 -124 90 l0 48 180 0 180 0 0 145 0 145 -68 0 -67 0 -17 -82 c-10 -44 -22 -86 -28 -92 -6 -6 -49 -13 -95 -15 l-85 -3 0 130 0 130 188 5 c133 3 204 10 247 22 155 43 276 133 327 240 25 53 28 71 28 156 0 225 -88 340 -307 401 -73 21 -103 22 -516 26 l-438 3 3 -63z m783 -93 c126 -42 175 -114 176 -256 1 -100 -15 -146 -68 -201 -67 -69 -173 -97 -345 -90 l-78 3 0 286 0 286 133 -6 c85 -3 150 -11 182 -22z"/>
 </g>

</svg>