<!DOCTYPE svg PUBLIC "-//W3C//DTD SVG 20010904//EN" "http://www.w3.org/TR/2001/REC-SVG-20010904/DTD/svg10.dtd">
<svg version="1.0" xmlns="http://www.w3.org/2000/svg" width="256px" height="256px" viewBox="0 0 2560 2560" preserveAspectRatio="xMidYMid meet"><g fill="#010101" stroke="none">
 <path d="M1114 1968 c-64 -44 -94 -102 -94 -180 0 -32 6 -74 14 -92 l14 -33 -82 -7 c-220 -17 -397 -110 -463 -244 -25 -51 -28 -68 -27 -152 0 -77 5 -106 25 -155 l24 -60 98 -3 c53 -1 97 0 97 3 0 3 -7 16 -14 28 -20 30 -46 132 -46 180 0 89 57 145 196 194 75 26 88 28 254 28 178 -1 278 -13 450 -55 183 -45 256 -90 308 -190 31 -60 33 -70 30 -140 -3 -41 -8 -83 -12 -92 -7 -16 0 -18 87 -18 l95 0 6 31 c11 57 6 205 -9 255 -52 178 -258 307 -560 354 -44 7 -83 16 -87 19 -5 4 1 25 13 46 16 32 20 54 17 112 -3 60 -8 78 -33 114 -43 61 -102 89 -185 89 -60 0 -73 -4 -116 -32z m181 -123 c56 -55 16 -145 -63 -145 -51 0 -84 34 -84 85 0 78 92 116 147 60z"/>
 <path d="M1030 935 l0 -75 75 0 75 0 0 75 0 75 -75 0 -75 0 0 -75z"/>
 <path d="M1270 935 l0 -75 80 0 80 0 0 75 0 75 -80 0 -80 0 0 -75z"/>
 </g>

</svg>