<!DOCTYPE svg PUBLIC "-//W3C//DTD SVG 20010904//EN" "http://www.w3.org/TR/2001/REC-SVG-20010904/DTD/svg10.dtd">
<svg version="1.0" xmlns="http://www.w3.org/2000/svg" width="256px" height="256px" viewBox="0 0 2560 2560" preserveAspectRatio="xMidYMid meet"><g fill="#010101" stroke="none">
 <path d="M2095 2368 c-2 -7 -6 -49 -8 -93 -11 -172 -79 -280 -189 -300 -34 -6 -38 -10 -38 -38 0 -21 -42 -96 -150 -266 -82 -130 -160 -247 -173 -259 -13 -13 -41 -25 -61 -29 l-36 -6 0 224 c0 260 2 269 73 269 77 0 87 7 87 56 l0 44 -265 0 -265 0 0 -44 c0 -49 10 -56 87 -56 71 0 73 -9 73 -269 l0 -224 -37 6 c-21 4 -49 18 -64 34 -52 52 -329 496 -329 525 l0 28 -170 0 -170 0 0 -45 c0 -42 2 -44 33 -49 17 -3 50 -7 71 -8 l40 -3 142 -230 c79 -126 157 -242 175 -257 17 -15 53 -32 78 -39 l46 -11 -45 -47 c-62 -64 -104 -147 -140 -279 -31 -116 -66 -198 -94 -221 -13 -11 -32 -7 -118 28 l-102 41 -24 -23 c-34 -32 -52 -70 -52 -113 0 -29 7 -44 35 -70 41 -38 80 -48 169 -42 82 5 146 43 197 116 34 48 50 92 110 291 27 89 105 213 148 235 16 9 46 16 66 16 l35 0 0 -239 c0 -132 -4 -251 -9 -264 -9 -22 -18 -26 -80 -32 l-71 -7 0 -49 0 -49 265 0 265 0 0 49 0 49 -71 7 c-62 6 -71 10 -80 32 -5 13 -9 132 -9 264 l0 239 34 0 c18 0 48 -10 67 -23 46 -31 115 -146 140 -232 51 -176 73 -234 108 -285 52 -76 114 -113 197 -118 89 -6 128 4 169 42 28 26 35 41 35 70 0 43 -18 81 -52 113 l-24 23 -102 -41 c-86 -35 -105 -39 -118 -28 -27 23 -61 101 -94 219 -37 135 -78 217 -140 281 l-45 47 45 11 c24 7 59 23 77 37 19 14 92 120 179 259 l146 235 47 0 c25 0 56 3 69 6 l22 6 0 249 0 249 -50 0 c-32 0 -52 -5 -55 -12z"/>
 </g>

</svg>