<!DOCTYPE svg PUBLIC "-//W3C//DTD SVG 20010904//EN" "http://www.w3.org/TR/2001/REC-SVG-20010904/DTD/svg10.dtd">
<svg version="1.0" xmlns="http://www.w3.org/2000/svg" width="256px" height="256px" viewBox="0 0 2560 2560" preserveAspectRatio="xMidYMid meet"><g fill="#000000" stroke="none">
 <path d="M590 1849 l0 -160 23 3 c16 2 23 11 25 30 4 38 51 84 98 97 21 6 108 11 192 11 l152 0 0 -58 0 -57 -78 -17 c-176 -36 -319 -143 -395 -296 -40 -82 -42 -89 -46 -195 -6 -192 35 -306 153 -422 76 -75 146 -115 271 -155 96 -31 354 -40 469 -16 319 66 496 264 496 555 0 163 -48 279 -158 382 -78 74 -192 132 -292 150 l-70 12 0 59 0 58 153 0 c83 0 170 -5 191 -11 47 -13 94 -59 98 -97 2 -19 9 -28 26 -30 l22 -3 0 160 0 161 -280 0 -280 0 0 -178 0 -178 66 -28 c143 -62 245 -169 284 -294 25 -79 27 -213 5 -297 -37 -141 -144 -274 -270 -336 -67 -33 -73 -34 -190 -34 -115 0 -123 1 -188 32 -125 59 -235 196 -272 338 -22 84 -20 218 5 297 39 125 141 232 284 294 l66 28 0 178 0 178 -280 0 -280 0 0 -161z"/>
 </g>

</svg>