<!DOCTYPE svg PUBLIC "-//W3C//DTD SVG 20010904//EN" "http://www.w3.org/TR/2001/REC-SVG-20010904/DTD/svg10.dtd">
<svg version="1.0" xmlns="http://www.w3.org/2000/svg" width="256px" height="256px" viewBox="0 0 2560 2560" preserveAspectRatio="xMidYMid meet"><g fill="#000000" stroke="none">
 <path d="M430 1210 l0 -730 105 0 105 0 0 295 0 295 286 0 286 0 -28 -47 c-15 -27 -92 -159 -170 -295 l-143 -248 639 0 c352 0 640 2 640 4 0 2 -90 160 -201 352 -111 191 -203 353 -206 360 -2 7 26 27 70 48 130 62 247 188 305 328 32 77 57 189 67 301 l6 67 -110 0 -109 0 -6 -77 c-23 -261 -146 -444 -333 -498 l-23 -6 0 290 0 291 -105 0 -105 0 0 -291 0 -290 -22 7 c-141 43 -254 169 -303 338 -9 31 -20 96 -23 144 l-7 87 -107 3 -108 3 0 -63 c1 -230 122 -474 291 -587 l61 -41 -271 0 -271 0 0 345 0 345 -105 0 -105 0 0 -730z m1235 -299 c80 -139 144 -255 142 -257 -2 -3 -137 -3 -300 -2 l-295 3 141 245 c162 279 158 272 162 268 2 -2 69 -117 150 -257z"/>
 </g>

</svg>