<!DOCTYPE svg PUBLIC "-//W3C//DTD SVG 20010904//EN" "http://www.w3.org/TR/2001/REC-SVG-20010904/DTD/svg10.dtd">
<svg version="1.0" xmlns="http://www.w3.org/2000/svg" width="256px" height="256px" viewBox="0 0 2560 2560" preserveAspectRatio="xMidYMid meet"><g fill="#010101" stroke="none">
 <path d="M535 2146 c-140 -44 -232 -145 -276 -301 -22 -77 -19 -376 5 -485 37 -175 110 -367 178 -473 l30 -47 124 0 123 0 -50 66 c-89 117 -166 302 -204 488 -16 80 -21 261 -9 312 10 42 49 116 71 136 37 33 94 50 172 49 106 -1 162 -21 271 -96 132 -90 164 -100 335 -100 85 0 157 5 182 13 23 7 91 45 151 86 121 81 166 97 279 97 171 1 244 -93 244 -317 0 -220 -92 -499 -220 -668 l-50 -66 123 0 124 0 30 48 c66 102 133 277 173 447 30 130 37 376 15 478 -34 153 -108 254 -226 310 -57 27 -78 32 -167 35 -97 4 -106 3 -166 -26 -35 -16 -113 -63 -173 -103 -137 -92 -210 -120 -315 -120 -107 0 -188 30 -323 120 -168 113 -213 131 -321 130 -49 0 -108 -6 -130 -13z"/>
 <path d="M1190 894 c0 -35 4 -56 13 -58 77 -21 103 -46 114 -109 l6 -37 -67 0 -66 0 0 -80 0 -80 126 0 127 0 -6 118 c-3 64 -11 133 -18 152 -28 83 -91 131 -186 143 l-43 5 0 -54z"/>
 <path d="M1554 533 c-19 -59 -31 -78 -67 -101 -34 -23 -50 -26 -111 -26 -64 1 -85 6 -186 51 -121 54 -208 83 -247 83 -22 0 -23 -4 -23 -68 l0 -68 50 -13 c28 -7 91 -33 141 -57 49 -24 118 -51 152 -60 122 -32 276 -3 340 64 33 35 65 108 73 166 l7 46 -62 0 c-50 0 -63 -3 -67 -17z"/>
 </g>

</svg>