<!DOCTYPE svg PUBLIC "-//W3C//DTD SVG 20010904//EN" "http://www.w3.org/TR/2001/REC-SVG-20010904/DTD/svg10.dtd">
<svg version="1.0" xmlns="http://www.w3.org/2000/svg" width="256px" height="256px" viewBox="0 0 2560 2560" preserveAspectRatio="xMidYMid meet"><g fill="#010101" stroke="none">
 <path d="M1374 2090 c-22 -5 -57 -15 -77 -24 l-37 -15 0 -85 0 -85 46 20 c146 65 247 18 301 -139 l22 -66 -47 -13 c-26 -7 -50 -12 -53 -13 -23 -1 -104 -70 -125 -105 -38 -66 -46 -99 -53 -241 l-6 -131 -80 45 c-75 43 -82 50 -105 101 -54 128 -144 242 -243 309 -93 65 -149 67 -165 8 -26 -93 37 -211 201 -378 79 -80 88 -94 109 -160 31 -100 33 -246 3 -298 -25 -42 -76 -70 -130 -70 -44 0 -70 14 -127 69 l-38 35 0 -117 0 -116 33 -17 c81 -43 244 -24 334 37 96 67 147 239 112 388 -5 24 -8 45 -7 47 2 2 39 -17 83 -42 l80 -46 48 -99 c36 -76 64 -117 116 -172 108 -113 211 -164 256 -127 28 23 20 119 -16 186 -36 69 -115 167 -198 247 -51 50 -64 69 -82 125 -43 139 -35 284 20 336 31 30 112 49 148 35 13 -5 47 -30 75 -56 l51 -48 -7 80 c-23 248 -87 440 -175 523 -60 57 -180 89 -267 72z"/>
 </g>

</svg>